<?xml version="1.0" encoding="UTF-8" standalone="no"?><svg xmlns="http://www.w3.org/2000/svg" xmlns:xlink="http://www.w3.org/1999/xlink" contentScriptType="text/ecmascript" zoomAndPan="magnify" text-rendering="geometricPrecision" contentStyleType="text/css" version="1" width="4400" clip-rule="evenodd" fill="#000000" preserveAspectRatio="xMidYMid meet" viewBox="56.0 50.0 4288.0 3000.0" height="3100" fill-rule="evenodd" image-rendering="optimizeQuality"><g><g id="change1_1"><path fill="#009c3b" d="M56 3050L4344 3050 4344 50 56 50z"/></g><g id="change2_1"><path fill="#ffdf00" d="M2200 409L415 1550 2200 2691 3985 1550z"/></g><g id="change3_1"><path fill="#002776" d="M2200 806c411,0 744,333 744,744 0,411 -333,744 -744,744 -411,0 -744,-333 -744,-744 0,-411 333,-744 744,-744z"/></g><g id="change4_1"><path fill="#ffffff" d="M1477 1377c593,-78 1070,57 1430,405 12,-36 21,-74 27,-113 -357,-347 -830,-484 -1418,-411 -17,38 -30,78 -39,119z"/></g><g id="change4_2"><path fill="#ffffff" d="M1595 1413l8 25 26 0 -21 15 8 25 -21 -16 -21 16 9 -25 -21 -15 25 0 8 -25zm863 -169l8 25 26 0 -21 15 8 25 -21 -15 -21 15 8 -25 -21 -15 26 0 8 -25zm-48 687l8 24 26 0 -21 15 8 25 -21 -15 -21 15 8 -25 -21 -15 26 0 8 -24zm49 92l8 25 25 0 -21 15 9 24 -21 -15 -21 15 8 -24 -21 -15 26 0 8 -25zm149 -27l8 25 26 0 -21 15 8 25 -21 -16 -21 16 8 -25 -21 -15 26 0 8 -25zm92 -92l8 24 25 0 -20 15 8 25 -21 -15 -21 15 8 -25 -21 -15 26 0 8 -24zm92 -93l8 25 25 0 -21 15 8 24 -20 -15 -21 15 8 -24 -21 -15 26 0 8 -25zm-598 -175l8 25 25 0 -21 15 8 25 -20 -16 -21 16 8 -25 -21 -15 26 0 8 -25zm106 91l8 25 26 -1 -21 16 8 24 -21 -15 -21 15 8 -24 -21 -16 26 1 8 -25zm-90 136l8 24 26 0 -21 15 8 25 -21 -15 -21 15 8 -25 -21 -15 26 0 8 -24zm-298 64l8 25 26 0 -21 15 8 25 -21 -16 -21 16 8 -25 -21 -15 26 0 8 -25zm-90 -142l8 25 26 0 -21 15 8 24 -21 -15 -21 15 8 -24 -21 -15 26 0 8 -25zm-146 -68l8 25 26 0 -21 15 8 25 -21 -16 -21 16 8 -25 -21 -15 26 0 8 -25zm247 -153l8 24 25 0 -21 15 9 25 -21 -15 -21 15 8 -25 -21 -15 26 0 8 -24z"/></g></g></svg>